<?xml version="1.0" encoding="UTF-8" standalone="no"?>
<!DOCTYPE svg PUBLIC "-//W3C//DTD SVG 1.0//EN" "http://www.w3.org/TR/2001/PR-SVG-20010719/DTD/svg10.dtd">
<svg width="58cm" height="28cm" viewBox="53 32 1145 552" xmlns="http://www.w3.org/2000/svg" xmlns:xlink="http://www.w3.org/1999/xlink">
  <g>
    <rect style="fill: #1e90ff" x="533" y="173" width="122.7" height="28"/>
    <rect style="fill: none; fill-opacity:0; stroke-width: 3; stroke: #000000" x="533" y="173" width="122.7" height="28"/>
    <text style="fill: #000000;text-anchor:middle;font-size:16;font-family:sanserif;font-style:normal;font-weight:700" x="594.35" y="192">MainActivity</text>
    <rect style="fill: #1e90ff" x="533" y="201" width="122.7" height="8"/>
    <rect style="fill: none; fill-opacity:0; stroke-width: 3; stroke: #000000" x="533" y="201" width="122.7" height="8"/>
    <rect style="fill: #1e90ff" x="533" y="209" width="122.7" height="8"/>
    <rect style="fill: none; fill-opacity:0; stroke-width: 3; stroke: #000000" x="533" y="209" width="122.7" height="8"/>
  </g>
  <g>
    <rect style="fill: #ffa500" x="377.4" y="385.7" width="121.45" height="28"/>
    <rect style="fill: none; fill-opacity:0; stroke-width: 3; stroke: #000000" x="377.4" y="385.7" width="121.45" height="28"/>
    <text style="fill: #000000;text-anchor:middle;font-size:16;font-family:sanserif;font-style:normal;font-weight:700" x="438.125" y="404.7">PlayerModel</text>
    <rect style="fill: #ffa500" x="377.4" y="413.7" width="121.45" height="8"/>
    <rect style="fill: none; fill-opacity:0; stroke-width: 3; stroke: #000000" x="377.4" y="413.7" width="121.45" height="8"/>
    <rect style="fill: #ffa500" x="377.4" y="421.7" width="121.45" height="8"/>
    <rect style="fill: none; fill-opacity:0; stroke-width: 3; stroke: #000000" x="377.4" y="421.7" width="121.45" height="8"/>
  </g>
  <g>
    <rect style="fill: #00ff00" x="554.3" y="53.9" width="79.1" height="28"/>
    <rect style="fill: none; fill-opacity:0; stroke-width: 3; stroke: #000000" x="554.3" y="53.9" width="79.1" height="28"/>
    <text style="fill: #000000;text-anchor:middle;font-size:16;font-family:sanserif;font-style:normal;font-weight:700" x="593.85" y="72.9">Activity</text>
    <rect style="fill: #00ff00" x="554.3" y="81.9" width="79.1" height="8"/>
    <rect style="fill: none; fill-opacity:0; stroke-width: 3; stroke: #000000" x="554.3" y="81.9" width="79.1" height="8"/>
    <rect style="fill: #00ff00" x="554.3" y="89.9" width="79.1" height="8"/>
    <rect style="fill: none; fill-opacity:0; stroke-width: 3; stroke: #000000" x="554.3" y="89.9" width="79.1" height="8"/>
  </g>
  <g>
    <rect style="fill: #ffa500" x="309.2" y="277.1" width="157.2" height="28"/>
    <rect style="fill: none; fill-opacity:0; stroke-width: 3; stroke: #000000" x="309.2" y="277.1" width="157.2" height="28"/>
    <text style="fill: #000000;text-anchor:middle;font-size:16;font-family:sanserif;font-style:normal;font-weight:700" x="387.8" y="296.1">PlayerController</text>
    <rect style="fill: #ffa500" x="309.2" y="305.1" width="157.2" height="8"/>
    <rect style="fill: none; fill-opacity:0; stroke-width: 3; stroke: #000000" x="309.2" y="305.1" width="157.2" height="8"/>
    <rect style="fill: #ffa500" x="309.2" y="313.1" width="157.2" height="8"/>
    <rect style="fill: none; fill-opacity:0; stroke-width: 3; stroke: #000000" x="309.2" y="313.1" width="157.2" height="8"/>
  </g>
  <g>
    <rect style="fill: #ff0000" x="746.1" y="277.3" width="132.55" height="28"/>
    <rect style="fill: none; fill-opacity:0; stroke-width: 3; stroke: #000000" x="746.1" y="277.3" width="132.55" height="28"/>
    <text style="fill: #000000;text-anchor:middle;font-size:16;font-family:sanserif;font-style:normal;font-weight:700" x="812.375" y="296.3">GUIController</text>
    <rect style="fill: #ff0000" x="746.1" y="305.3" width="132.55" height="8"/>
    <rect style="fill: none; fill-opacity:0; stroke-width: 3; stroke: #000000" x="746.1" y="305.3" width="132.55" height="8"/>
    <rect style="fill: #ff0000" x="746.1" y="313.3" width="132.55" height="8"/>
    <rect style="fill: none; fill-opacity:0; stroke-width: 3; stroke: #000000" x="746.1" y="313.3" width="132.55" height="8"/>
  </g>
  <g>
    <polyline style="fill: none; fill-opacity:0; stroke-width: 2; stroke: #000000" points="594.35,154.764 594.35,135.45 593.85,135.45 593.85,97.9 "/>
    <polygon style="fill: #ffffff" points="586.35,154.764 594.35,170.764 602.35,154.764 "/>
    <polygon style="fill: none; fill-opacity:0; stroke-width: 2; stroke: #000000" points="586.35,154.764 594.35,170.764 602.35,154.764 "/>
  </g>
  <g>
    <polyline style="fill: none; fill-opacity:0; stroke-width: 2; stroke: #000000" points="680.872,187 812.375,187 812.375,277.3 "/>
    <polygon style="fill: #ffffff" points="655.7,187 669.7,182.2 683.7,187 669.7,191.8 "/>
    <polygon style="fill: none; fill-opacity:0; stroke-width: 2; stroke: #000000" points="655.7,187 669.7,182.2 683.7,187 669.7,191.8 "/>
    <text style="fill: #000000;text-anchor:middle;font-size:12.7998;font-family:monospace;font-style:normal;font-weight:normal" x="734.038" y="184"></text>
    <text style="fill: #000000;text-anchor:start;font-size:12.7998;font-family:monospace;font-style:normal;font-weight:normal" x="687.7" y="184"></text>
    <text style="fill: #000000;text-anchor:start;font-size:12.7998;font-family:monospace;font-style:normal;font-weight:normal" x="816.375" y="273.3"></text>
  </g>
  <g>
    <polyline style="fill: none; fill-opacity:0; stroke-width: 2; stroke: #000000" points="438.125,359.023 438.125,352.647 387.8,352.647 387.8,321.1 "/>
    <polygon style="fill: #ffffff" points="438.125,384.194 433.325,370.194 438.125,356.194 442.925,370.194 "/>
    <polygon style="fill: none; fill-opacity:0; stroke-width: 2; stroke: #000000" points="438.125,384.194 433.325,370.194 438.125,356.194 442.925,370.194 "/>
    <text style="fill: #000000;text-anchor:middle;font-size:12.7998;font-family:monospace;font-style:normal;font-weight:normal" x="412.962" y="349.647"></text>
    <text style="fill: #000000;text-anchor:start;font-size:12.7998;font-family:monospace;font-style:normal;font-weight:normal" x="449.125" y="380.194"></text>
    <text style="fill: #000000;text-anchor:start;font-size:12.7998;font-family:monospace;font-style:normal;font-weight:normal" x="391.8" y="333.1"></text>
  </g>
  <g>
    <rect style="fill: #ffa500" x="396" y="489.5" width="83.1" height="28"/>
    <rect style="fill: none; fill-opacity:0; stroke-width: 3; stroke: #000000" x="396" y="489.5" width="83.1" height="28"/>
    <text style="fill: #000000;text-anchor:middle;font-size:16;font-family:sanserif;font-style:normal;font-weight:700" x="437.55" y="508.5">Channel</text>
    <rect style="fill: #ffa500" x="396" y="517.5" width="83.1" height="8"/>
    <rect style="fill: none; fill-opacity:0; stroke-width: 3; stroke: #000000" x="396" y="517.5" width="83.1" height="8"/>
    <rect style="fill: #ffa500" x="396" y="525.5" width="83.1" height="8"/>
    <rect style="fill: none; fill-opacity:0; stroke-width: 3; stroke: #000000" x="396" y="525.5" width="83.1" height="8"/>
  </g>
  <g>
    <polyline style="fill: none; fill-opacity:0; stroke-width: 2; stroke: #000000" points="437.55,464.328 437.55,459.6 438.125,459.6 438.125,429.7 "/>
    <polygon style="fill: #ffffff" points="437.55,489.5 432.75,475.5 437.55,461.5 442.35,475.5 "/>
    <polygon style="fill: none; fill-opacity:0; stroke-width: 2; stroke: #000000" points="437.55,489.5 432.75,475.5 437.55,461.5 442.35,475.5 "/>
    <text style="fill: #000000;text-anchor:middle;font-size:12.7998;font-family:monospace;font-style:normal;font-weight:normal" x="437.837" y="456.6"></text>
    <text style="fill: #000000;text-anchor:start;font-size:12.7998;font-family:monospace;font-style:normal;font-weight:normal" x="448.55" y="485.5"></text>
    <text style="fill: #000000;text-anchor:start;font-size:12.7998;font-family:monospace;font-style:normal;font-weight:normal" x="442.125" y="441.7"></text>
  </g>
  <g>
    <rect style="fill: #ffa500" x="539" y="489" width="51.45" height="28"/>
    <rect style="fill: none; fill-opacity:0; stroke-width: 3; stroke: #000000" x="539" y="489" width="51.45" height="28"/>
    <text style="fill: #000000;text-anchor:middle;font-size:16;font-family:sanserif;font-style:normal;font-weight:700" x="564.725" y="508">Step</text>
    <rect style="fill: #ffa500" x="539" y="517" width="51.45" height="8"/>
    <rect style="fill: none; fill-opacity:0; stroke-width: 3; stroke: #000000" x="539" y="517" width="51.45" height="8"/>
    <rect style="fill: #ffa500" x="539" y="525" width="51.45" height="8"/>
    <rect style="fill: none; fill-opacity:0; stroke-width: 3; stroke: #000000" x="539" y="525" width="51.45" height="8"/>
  </g>
  <g>
    <rect style="fill: #ffa500" x="56" y="180" width="145.85" height="28"/>
    <rect style="fill: none; fill-opacity:0; stroke-width: 3; stroke: #000000" x="56" y="180" width="145.85" height="28"/>
    <text style="fill: #000000;text-anchor:middle;font-size:16;font-family:sanserif;font-style:normal;font-weight:700" x="128.925" y="199">SoundManager</text>
    <rect style="fill: #ffa500" x="56" y="208" width="145.85" height="8"/>
    <rect style="fill: none; fill-opacity:0; stroke-width: 3; stroke: #000000" x="56" y="208" width="145.85" height="8"/>
    <rect style="fill: #ffa500" x="56" y="216" width="145.85" height="8"/>
    <rect style="fill: none; fill-opacity:0; stroke-width: 3; stroke: #000000" x="56" y="216" width="145.85" height="8"/>
  </g>
  <g>
    <polyline style="fill: none; fill-opacity:0; stroke-width: 2; stroke: #000000" points="228.531,202 256.28,202 256.28,291.1 309.2,291.1 "/>
    <polygon style="fill: #ffffff" points="203.359,202 217.359,197.2 231.359,202 217.359,206.8 "/>
    <polygon style="fill: none; fill-opacity:0; stroke-width: 2; stroke: #000000" points="203.359,202 217.359,197.2 231.359,202 217.359,206.8 "/>
    <text style="fill: #000000;text-anchor:start;font-size:12.7998;font-family:monospace;font-style:normal;font-weight:normal" x="258.28" y="243.55"></text>
    <text style="fill: #000000;text-anchor:start;font-size:12.7998;font-family:monospace;font-style:normal;font-weight:normal" x="235.359" y="199"></text>
    <text style="fill: #000000;text-anchor:end;font-size:12.7998;font-family:monospace;font-style:normal;font-weight:normal" x="305.2" y="288.1"></text>
  </g>
  <g>
    <rect style="fill: #00ff00" x="76" y="47.0004" width="106" height="28"/>
    <rect style="fill: none; fill-opacity:0; stroke-width: 3; stroke: #000000" x="76" y="47.0004" width="106" height="28"/>
    <text style="fill: #000000;text-anchor:middle;font-size:16;font-family:sanserif;font-style:normal;font-weight:700" x="129" y="66.0004">SoundPool</text>
    <rect style="fill: #00ff00" x="76" y="75.0004" width="106" height="8"/>
    <rect style="fill: none; fill-opacity:0; stroke-width: 3; stroke: #000000" x="76" y="75.0004" width="106" height="8"/>
    <rect style="fill: #00ff00" x="76" y="83.0004" width="106" height="8"/>
    <rect style="fill: none; fill-opacity:0; stroke-width: 3; stroke: #000000" x="76" y="83.0004" width="106" height="8"/>
  </g>
  <g>
    <polyline style="fill: none; fill-opacity:0; stroke-width: 2; stroke: #000000" points="129,116.172 129,135.5 128.925,135.5 128.925,180 "/>
    <polygon style="fill: #ffffff" points="129,91.0004 133.8,105 129,119 124.2,105 "/>
    <polygon style="fill: none; fill-opacity:0; stroke-width: 2; stroke: #000000" points="129,91.0004 133.8,105 129,119 124.2,105 "/>
    <text style="fill: #000000;text-anchor:middle;font-size:12.7998;font-family:monospace;font-style:normal;font-weight:normal" x="128.962" y="132.5"></text>
    <text style="fill: #000000;text-anchor:start;font-size:12.7998;font-family:monospace;font-style:normal;font-weight:normal" x="140" y="103"></text>
    <text style="fill: #000000;text-anchor:start;font-size:12.7998;font-family:monospace;font-style:normal;font-weight:normal" x="132.925" y="176"></text>
  </g>
  <g>
    <polyline style="fill: none; fill-opacity:0; stroke-width: 2; stroke: #000000" points="513.828,503 509.05,503 509.05,503.5 479.1,503.5 "/>
    <polygon style="fill: #ffffff" points="539,503 525,507.8 511,503 525,498.2 "/>
    <polygon style="fill: none; fill-opacity:0; stroke-width: 2; stroke: #000000" points="539,503 525,507.8 511,503 525,498.2 "/>
    <text style="fill: #000000;text-anchor:start;font-size:12.7998;font-family:monospace;font-style:normal;font-weight:normal" x="511.05" y="500.25"></text>
    <text style="fill: #000000;text-anchor:end;font-size:12.7998;font-family:monospace;font-style:normal;font-weight:normal" x="507" y="500"></text>
    <text style="fill: #000000;text-anchor:start;font-size:12.7998;font-family:monospace;font-style:normal;font-weight:normal" x="483.1" y="500.5"></text>
  </g>
  <g>
    <rect style="fill: #ff0000" x="930" y="383.25" width="115.2" height="28"/>
    <rect style="fill: none; fill-opacity:0; stroke-width: 3; stroke: #000000" x="930" y="383.25" width="115.2" height="28"/>
    <text style="fill: #000000;text-anchor:middle;font-size:16;font-family:sanserif;font-style:normal;font-weight:700" x="987.6" y="402.25">ChannelGUI</text>
    <rect style="fill: #ff0000" x="930" y="411.25" width="115.2" height="8"/>
    <rect style="fill: none; fill-opacity:0; stroke-width: 3; stroke: #000000" x="930" y="411.25" width="115.2" height="8"/>
    <rect style="fill: #ff0000" x="930" y="419.25" width="115.2" height="8"/>
    <rect style="fill: none; fill-opacity:0; stroke-width: 3; stroke: #000000" x="930" y="419.25" width="115.2" height="8"/>
  </g>
  <g>
    <polyline style="fill: none; fill-opacity:0; stroke-width: 2; stroke: #000000" points="507.828,187 387.8,187 387.8,277.1 "/>
    <polygon style="fill: #ffffff" points="533,187 519,191.8 505,187 519,182.2 "/>
    <polygon style="fill: none; fill-opacity:0; stroke-width: 2; stroke: #000000" points="533,187 519,191.8 505,187 519,182.2 "/>
    <text style="fill: #000000;text-anchor:middle;font-size:12.7998;font-family:monospace;font-style:normal;font-weight:normal" x="460.4" y="184"></text>
    <text style="fill: #000000;text-anchor:end;font-size:12.7998;font-family:monospace;font-style:normal;font-weight:normal" x="501" y="184"></text>
    <text style="fill: #000000;text-anchor:start;font-size:12.7998;font-family:monospace;font-style:normal;font-weight:normal" x="391.8" y="273.1"></text>
  </g>
  <g>
    <rect style="fill: #ff0000" x="946.102" y="537.95" width="83.55" height="28"/>
    <rect style="fill: none; fill-opacity:0; stroke-width: 3; stroke: #000000" x="946.102" y="537.95" width="83.55" height="28"/>
    <text style="fill: #000000;text-anchor:middle;font-size:16;font-family:sanserif;font-style:normal;font-weight:700" x="987.877" y="556.95">StepGUI</text>
    <rect style="fill: #ff0000" x="946.102" y="565.95" width="83.55" height="8"/>
    <rect style="fill: none; fill-opacity:0; stroke-width: 3; stroke: #000000" x="946.102" y="565.95" width="83.55" height="8"/>
    <rect style="fill: #ff0000" x="946.102" y="573.95" width="83.55" height="8"/>
    <rect style="fill: none; fill-opacity:0; stroke-width: 3; stroke: #000000" x="946.102" y="573.95" width="83.55" height="8"/>
  </g>
  <g>
    <polyline style="fill: none; fill-opacity:0; stroke-width: 2; stroke: #000000" points="987.877,512.778 987.877,482.6 987.6,482.6 987.6,427.25 "/>
    <polygon style="fill: #ffffff" points="987.877,537.95 983.077,523.95 987.877,509.95 992.677,523.95 "/>
    <polygon style="fill: none; fill-opacity:0; stroke-width: 2; stroke: #000000" points="987.877,537.95 983.077,523.95 987.877,509.95 992.677,523.95 "/>
    <text style="fill: #000000;text-anchor:middle;font-size:12.7998;font-family:monospace;font-style:normal;font-weight:normal" x="987.739" y="479.6"></text>
    <text style="fill: #000000;text-anchor:start;font-size:12.7998;font-family:monospace;font-style:normal;font-weight:normal" x="998.877" y="533.95"></text>
    <text style="fill: #000000;text-anchor:start;font-size:12.7998;font-family:monospace;font-style:normal;font-weight:normal" x="991.6" y="439.25"></text>
  </g>
  <g>
    <polyline style="fill: none; fill-opacity:0; stroke-width: 2; stroke: #000000" points="904.828,397.25 900.825,397.25 900.825,397.9 874.544,397.9 "/>
    <polygon style="fill: #ffffff" points="930,397.25 916,402.05 902,397.25 916,392.45 "/>
    <polygon style="fill: none; fill-opacity:0; stroke-width: 2; stroke: #000000" points="930,397.25 916,402.05 902,397.25 916,392.45 "/>
    <text style="fill: #000000;text-anchor:start;font-size:12.7998;font-family:monospace;font-style:normal;font-weight:normal" x="902.825" y="394.575"></text>
    <text style="fill: #000000;text-anchor:end;font-size:12.7998;font-family:monospace;font-style:normal;font-weight:normal" x="898" y="394.25"></text>
    <text style="fill: #000000;text-anchor:start;font-size:12.7998;font-family:monospace;font-style:normal;font-weight:normal" x="878.544" y="394.9"></text>
  </g>
  <g>
    <rect style="fill: #00ff00" x="1135.7" y="434.25" width="53.25" height="28"/>
    <rect style="fill: none; fill-opacity:0; stroke-width: 3; stroke: #000000" x="1135.7" y="434.25" width="53.25" height="28"/>
    <text style="fill: #000000;text-anchor:middle;font-size:16;font-family:sanserif;font-style:normal;font-weight:700" x="1162.33" y="453.25">View</text>
    <rect style="fill: #00ff00" x="1135.7" y="462.25" width="53.25" height="8"/>
    <rect style="fill: none; fill-opacity:0; stroke-width: 3; stroke: #000000" x="1135.7" y="462.25" width="53.25" height="8"/>
    <rect style="fill: #00ff00" x="1135.7" y="470.25" width="53.25" height="8"/>
    <rect style="fill: none; fill-opacity:0; stroke-width: 3; stroke: #000000" x="1135.7" y="470.25" width="53.25" height="8"/>
  </g>
  <g>
    <polyline style="fill: none; fill-opacity:0; stroke-width: 2; stroke: #000000" points="1047.89,551.95 1162.33,551.95 1162.33,478.25 "/>
    <polygon style="fill: #ffffff" points="1047.89,543.95 1031.89,551.95 1047.89,559.95 "/>
    <polygon style="fill: none; fill-opacity:0; stroke-width: 2; stroke: #000000" points="1047.89,543.95 1031.89,551.95 1047.89,559.95 "/>
  </g>
  <g>
    <polyline style="fill: none; fill-opacity:0; stroke-width: 2; stroke: #000000" points="1063.44,397.25 1162.33,397.25 1162.33,434.25 "/>
    <polygon style="fill: #ffffff" points="1063.44,389.25 1047.44,397.25 1063.44,405.25 "/>
    <polygon style="fill: none; fill-opacity:0; stroke-width: 2; stroke: #000000" points="1063.44,389.25 1047.44,397.25 1063.44,405.25 "/>
  </g>
  <g>
    <rect style="fill: #ff0000" x="750.6" y="375.9" width="122.45" height="28"/>
    <rect style="fill: none; fill-opacity:0; stroke-width: 3; stroke: #000000" x="750.6" y="375.9" width="122.45" height="28"/>
    <text style="fill: #000000;text-anchor:middle;font-size:16;font-family:sanserif;font-style:normal;font-weight:700" x="811.825" y="394.9">GUISegment</text>
    <rect style="fill: #ff0000" x="750.6" y="403.9" width="122.45" height="8"/>
    <rect style="fill: none; fill-opacity:0; stroke-width: 3; stroke: #000000" x="750.6" y="403.9" width="122.45" height="8"/>
    <rect style="fill: #ff0000" x="750.6" y="411.9" width="122.45" height="8"/>
    <rect style="fill: none; fill-opacity:0; stroke-width: 3; stroke: #000000" x="750.6" y="411.9" width="122.45" height="8"/>
  </g>
  <g>
    <polyline style="fill: none; fill-opacity:0; stroke-width: 2; stroke: #000000" points="811.825,349.223 811.825,347.847 812.375,347.847 812.375,321.3 "/>
    <polygon style="fill: #ffffff" points="811.825,374.394 807.025,360.394 811.825,346.394 816.625,360.394 "/>
    <polygon style="fill: none; fill-opacity:0; stroke-width: 2; stroke: #000000" points="811.825,374.394 807.025,360.394 811.825,346.394 816.625,360.394 "/>
  </g>
  <g>
    <rect style="fill: #00ff00" x="766.456" y="484.4" width="90.35" height="28"/>
    <rect style="fill: none; fill-opacity:0; stroke-width: 3; stroke: #000000" x="766.456" y="484.4" width="90.35" height="28"/>
    <text style="fill: #000000;text-anchor:middle;font-size:16;font-family:sanserif;font-style:normal;font-weight:700" x="811.631" y="503.4">Segment</text>
    <rect style="fill: #00ff00" x="766.456" y="512.4" width="90.35" height="8"/>
    <rect style="fill: none; fill-opacity:0; stroke-width: 3; stroke: #000000" x="766.456" y="512.4" width="90.35" height="8"/>
    <rect style="fill: #00ff00" x="766.456" y="520.4" width="90.35" height="8"/>
    <rect style="fill: none; fill-opacity:0; stroke-width: 3; stroke: #000000" x="766.456" y="520.4" width="90.35" height="8"/>
  </g>
  <g>
    <rect style="fill: #a020f0" x="55" y="252.4" width="132.9" height="28"/>
    <rect style="fill: none; fill-opacity:0; stroke-width: 3; stroke: #000000" x="55" y="252.4" width="132.9" height="28"/>
    <text style="fill: #000000;text-anchor:middle;font-size:16;font-family:sanserif;font-style:normal;font-weight:700" x="121.45" y="271.4">AndroidTimer</text>
    <rect style="fill: #a020f0" x="55" y="280.4" width="132.9" height="8"/>
    <rect style="fill: none; fill-opacity:0; stroke-width: 3; stroke: #000000" x="55" y="280.4" width="132.9" height="8"/>
    <rect style="fill: #a020f0" x="55" y="288.4" width="132.9" height="8"/>
    <rect style="fill: none; fill-opacity:0; stroke-width: 3; stroke: #000000" x="55" y="288.4" width="132.9" height="8"/>
  </g>
  <g>
    <polyline style="fill: none; fill-opacity:0; stroke-width: 2; stroke: #000000" points="214.57,274.4 256,274.4 256,291.1 309.2,291.1 "/>
    <polygon style="fill: #ffffff" points="189.398,274.4 203.398,269.6 217.398,274.4 203.398,279.2 "/>
    <polygon style="fill: none; fill-opacity:0; stroke-width: 2; stroke: #000000" points="189.398,274.4 203.398,269.6 217.398,274.4 203.398,279.2 "/>
  </g>
  <g>
    <rect style="fill: #a020f0" x="62" y="342.4" width="144.05" height="28"/>
    <rect style="fill: none; fill-opacity:0; stroke-width: 3; stroke: #000000" x="62" y="342.4" width="144.05" height="28"/>
    <text style="fill: #000000;text-anchor:middle;font-size:16;font-family:sanserif;font-style:normal;font-weight:700" x="134.025" y="361.4">SaveController</text>
    <rect style="fill: #a020f0" x="62" y="370.4" width="144.05" height="8"/>
    <rect style="fill: none; fill-opacity:0; stroke-width: 3; stroke: #000000" x="62" y="370.4" width="144.05" height="8"/>
    <rect style="fill: #a020f0" x="62" y="378.4" width="144.05" height="8"/>
    <rect style="fill: none; fill-opacity:0; stroke-width: 3; stroke: #000000" x="62" y="378.4" width="144.05" height="8"/>
  </g>
  <g>
    <polyline style="fill: none; fill-opacity:0; stroke-width: 2; stroke: #000000" points="232.728,364.4 256,364.4 256,291.1 309.2,291.1 "/>
    <polygon style="fill: #ffffff" points="207.557,364.4 221.557,359.6 235.557,364.4 221.557,369.2 "/>
    <polygon style="fill: none; fill-opacity:0; stroke-width: 2; stroke: #000000" points="207.557,364.4 221.557,359.6 235.557,364.4 221.557,369.2 "/>
  </g>
  <g>
    <rect style="fill: #00ff00" x="1082.83" y="33.0002" width="114.15" height="52" rx="10" ry="10"/>
    <rect style="fill: none; fill-opacity:0; stroke-width: 2; stroke: #000000" x="1082.83" y="33.0002" width="114.15" height="52" rx="10" ry="10"/>
    <text style="fill: #000000;text-anchor:middle;font-size:12.7998;font-family:sanserif;font-style:normal;font-weight:normal" x="1139.9" y="54.9002">
      <tspan x="1139.9" y="54.9002">Android </tspan>
      <tspan x="1139.9" y="70.9002">Standardpaket</tspan>
    </text>
  </g>
  <g>
    <rect style="fill: #1e90ff" x="1093.33" y="101.9" width="95.75" height="36" rx="10" ry="10"/>
    <rect style="fill: none; fill-opacity:0; stroke-width: 2; stroke: #000000" x="1093.33" y="101.9" width="95.75" height="36" rx="10" ry="10"/>
    <text style="fill: #000000;text-anchor:middle;font-size:12.7998;font-family:sanserif;font-style:normal;font-weight:normal" x="1141.2" y="123.8">
      <tspan x="1141.2" y="123.8">adrumdrum</tspan>
    </text>
  </g>
  <g>
    <rect style="fill: #ff0000" x="1100.33" y="153.7" width="80" height="36" rx="10" ry="10"/>
    <rect style="fill: none; fill-opacity:0; stroke-width: 2; stroke: #000000" x="1100.33" y="153.7" width="80" height="36" rx="10" ry="10"/>
    <text style="fill: #000000;text-anchor:middle;font-size:12.7998;font-family:sanserif;font-style:normal;font-weight:normal" x="1140.33" y="175.6">
      <tspan x="1140.33" y="175.6">gui</tspan>
    </text>
  </g>
  <g>
    <rect style="fill: #ffa500" x="1099.83" y="211.6" width="80" height="36" rx="10" ry="10"/>
    <rect style="fill: none; fill-opacity:0; stroke-width: 2; stroke: #000000" x="1099.83" y="211.6" width="80" height="36" rx="10" ry="10"/>
    <text style="fill: #000000;text-anchor:middle;font-size:12.7998;font-family:sanserif;font-style:normal;font-weight:normal" x="1139.83" y="233.5">
      <tspan x="1139.83" y="233.5">Player</tspan>
    </text>
  </g>
  <g>
    <rect style="fill: #a020f0" x="1100.33" y="265.5" width="80" height="36" rx="10" ry="10"/>
    <rect style="fill: none; fill-opacity:0; stroke-width: 2; stroke: #000000" x="1100.33" y="265.5" width="80" height="36" rx="10" ry="10"/>
    <text style="fill: #000000;text-anchor:middle;font-size:12.7998;font-family:sanserif;font-style:normal;font-weight:normal" x="1140.33" y="287.4">
      <tspan x="1140.33" y="287.4">util</tspan>
    </text>
  </g>
  <g>
    <polyline style="fill: none; fill-opacity:0; stroke-width: 2; stroke: #000000" points="493.081,299.1 606.251,299.1 606.251,299.3 744.592,299.3 "/>
    <polygon style="fill: #ffffff" points="467.91,299.1 481.91,294.3 495.91,299.1 481.91,303.9 "/>
    <polygon style="fill: none; fill-opacity:0; stroke-width: 2; stroke: #000000" points="467.91,299.1 481.91,294.3 495.91,299.1 481.91,303.9 "/>
  </g>
  <g>
    <polyline style="fill: none; fill-opacity:0; stroke-width: 2; stroke: #000000" points="811.825,438.136 811.825,452.15 811.631,452.15 811.631,484.4 "/>
    <polygon style="fill: #ffffff" points="819.825,438.136 811.825,422.136 803.825,438.136 "/>
    <polygon style="fill: none; fill-opacity:0; stroke-width: 2; stroke: #000000" points="819.825,438.136 811.825,422.136 803.825,438.136 "/>
  </g>
</svg>
